<svg width="22" height="22" viewBox="0 0 22 22" fill="none" xmlns="http://www.w3.org/2000/svg">
<path fill-rule="evenodd" clip-rule="evenodd" d="M1.75 5C1.75 3.20507 3.20507 1.75 5 1.75H13C13.4142 1.75 13.75 1.41421 13.75 1C13.75 0.585786 13.4142 0.25 13 0.25H5C2.37665 0.25 0.25 2.37665 0.25 5V17C0.25 19.6234 2.37665 21.75 5 21.75H17C19.6234 21.75 21.75 19.6234 21.75 17V9C21.75 8.58579 21.4142 8.25 21 8.25C20.5858 8.25 20.25 8.58579 20.25 9V12.5091C20.2049 12.473 20.158 12.4387 20.1094 12.4063L17.7285 10.819C16.142 9.76132 14.0295 9.9705 12.6812 11.3188L9.31875 14.6812C7.9705 16.0295 5.85802 16.2387 4.27153 15.181L1.75 13.5V5ZM18.75 1C18.75 0.585786 18.4142 0.25 18 0.25C17.5858 0.25 17.25 0.585786 17.25 1V3.25H15C14.5858 3.25 14.25 3.58579 14.25 4C14.25 4.41421 14.5858 4.75 15 4.75H17.25V7C17.25 7.41421 17.5858 7.75 18 7.75C18.4142 7.75 18.75 7.41421 18.75 7V4.75H21C21.4142 4.75 21.75 4.41421 21.75 4C21.75 3.58579 21.4142 3.25 21 3.25H18.75V1ZM7.5 10C8.88071 10 10 8.88071 10 7.5C10 6.11929 8.88071 5 7.5 5C6.11929 5 5 6.11929 5 7.5C5 8.88071 6.11929 10 7.5 10Z" fill="#5458EA"/>
</svg>
