<svg width="21" height="18" viewBox="0 0 21 18" fill="none" xmlns="http://www.w3.org/2000/svg">
<path fill-rule="evenodd" clip-rule="evenodd" d="M1.96967 1.53033C1.67678 1.23744 1.67678 0.762563 1.96967 0.46967C2.26256 0.176777 2.73744 0.176777 3.03033 0.46967L19.0303 16.4697C19.3232 16.7626 19.3232 17.2374 19.0303 17.5303C18.7374 17.8232 18.2626 17.8232 17.9697 17.5303L15.1429 14.7036C13.7337 15.4709 12.16 16 10.5 16C6.68448 16 3.32549 13.2047 1.36971 11.1469C0.210098 9.92683 0.210098 8.07317 1.36971 6.8531C2.19953 5.98001 3.28196 4.97414 4.54468 4.10534L1.96967 1.53033ZM7.91536 7.47603C7.65145 7.92266 7.5 8.44364 7.5 9C7.5 10.6569 8.84315 12 10.5 12C11.0564 12 11.5773 11.8486 12.024 11.5846L7.91536 7.47603ZM10.5 2C14.3155 2 17.6745 4.79533 19.6303 6.8531C20.7899 8.07317 20.7899 9.92683 19.6303 11.1469C19.1902 11.6099 18.6791 12.1103 18.1078 12.6077L7.9127 2.41264C8.74217 2.15256 9.60863 2 10.5 2Z" fill="#C0C0C0"/>
</svg>
