<svg width="20" height="19" viewBox="0 0 20 19" fill="none" xmlns="http://www.w3.org/2000/svg">
<path d="M20 6.21004C20 7.63004 19.45 8.96004 18.45 9.96004L10.6 17.81C10.56 17.85 10.45 17.94 10.4 17.97C10.28 18.05 10.14 18.09 10 18.09C9.86 18.09 9.71 18.05 9.59 17.97C9.53 17.93 9.48 17.89 9.42 17.83L1.56 9.96004C0.549998 8.96004 0 7.63004 0 6.21004C0 4.79004 0.549998 3.46004 1.56 2.46004C3.63 0.400039 6.99 0.400039 9.06 2.46004L10 3.41004L10.95 2.46004C13.02 0.400039 16.38 0.400039 18.44 2.46004C19.45 3.46004 20 4.79004 20 6.21004Z" fill="#F34545"/>
</svg>
