<svg width="32" height="40" viewBox="0 0 32 40" fill="none" xmlns="http://www.w3.org/2000/svg">
<path fill-rule="evenodd" clip-rule="evenodd" d="M9.5 9.5C9.5 5.91015 12.4101 3 16 3C19.5899 3 22.5 5.91015 22.5 9.5V12H9.5V9.5ZM6.5 12.1404V9.5C6.5 4.25329 10.7533 0 16 0C21.2467 0 25.5 4.2533 25.5 9.5V12.1404C29.2013 12.8425 32 16.0944 32 20V32C32 36.4183 28.4183 40 24 40H8C3.58172 40 0 36.4183 0 32V20C0 16.0944 2.79871 12.8425 6.5 12.1404ZM16 22.5C16.8284 22.5 17.5 23.1716 17.5 24V28C17.5 28.8284 16.8284 29.5 16 29.5C15.1716 29.5 14.5 28.8284 14.5 28V24C14.5 23.1716 15.1716 22.5 16 22.5Z" fill="white" fill-opacity="0.5"/>
</svg>
