<svg width="93" height="109" viewBox="0 0 93 109" fill="none" xmlns="http://www.w3.org/2000/svg">
<path fill-rule="evenodd" clip-rule="evenodd" d="M17.5707 2.7143C26.7137 -3.38105 38.7234 2.20704 40.5046 12.4703H58.3334C66.5602 12.4703 73.2292 19.1394 73.2292 27.3661C73.2292 29.6098 71.4104 31.4286 69.1667 31.4286C66.9231 31.4286 65.1042 29.6098 65.1042 27.3661C65.1042 23.6267 62.0728 20.5953 58.3334 20.5953H40.7292V88.3036H58.3334C62.0728 88.3036 65.1042 85.2722 65.1042 81.5328C65.1042 79.2891 66.9231 77.4703 69.1667 77.4703C71.4104 77.4703 73.2292 79.2891 73.2292 81.5328C73.2292 89.7595 66.5602 96.4286 58.3334 96.4286H40.5046C38.7234 106.692 26.7137 112.28 17.5707 106.185L6.73736 98.9624C2.59336 96.1997 0.104248 91.5488 0.104248 86.5683V22.3306C0.104248 17.3501 2.59336 12.6992 6.73736 9.93652L17.5707 2.7143ZM77.1275 66.7053C75.541 65.1188 75.541 62.5466 77.1275 60.9601L81.0257 57.0619L52.9167 57.0618C50.6731 57.0618 48.8542 55.243 48.8542 52.9993C48.8542 50.7557 50.6731 48.9368 52.9167 48.9368L81.0257 48.9369L77.1275 45.0386C75.541 43.4521 75.541 40.8799 77.1275 39.2934C78.714 37.7069 81.2862 37.7069 82.8727 39.2934L89.8759 46.2966C93.5777 49.9984 93.5777 56.0003 89.8759 59.7021L82.8727 66.7053C81.2862 68.2918 78.714 68.2918 77.1275 66.7053Z" fill="url(#paint0_linear_1871_380)"/>
<defs>
<linearGradient id="paint0_linear_1871_380" x1="46.3783" y1="0.1875" x2="46.3783" y2="108.711" gradientUnits="userSpaceOnUse">
<stop stop-color="#F34545"/>
<stop offset="1" stop-color="#FFB4B4"/>
</linearGradient>
</defs>
</svg>
