<svg width="37" height="37" viewBox="0 0 37 37" fill="none" xmlns="http://www.w3.org/2000/svg">
<path d="M36.5 32.5V29.2081C36.5 27.5725 35.5042 26.1017 33.9856 25.4942L29.9173 23.8669C27.9857 23.0943 25.7844 23.9312 24.854 25.792L24.5 26.5C24.5 26.5 19.5 25.5 15.5 21.5C11.5 17.5 10.5 12.5 10.5 12.5L11.208 12.146C13.0688 11.2156 13.9057 9.01427 13.1331 7.08271L11.5058 3.01444C10.8983 1.49581 9.42749 0.5 7.79187 0.5H4.5C2.29086 0.5 0.5 2.29086 0.5 4.5C0.5 22.1731 14.8269 36.5 32.5 36.5C34.7091 36.5 36.5 34.7091 36.5 32.5Z" fill="white" fill-opacity="0.5" stroke="white" stroke-opacity="0.7" stroke-linejoin="round"/>
</svg>
