<svg width="21" height="14" viewBox="0 0 21 14" fill="none" xmlns="http://www.w3.org/2000/svg">
<path fill-rule="evenodd" clip-rule="evenodd" d="M19.6303 9.1469C20.7899 7.92683 20.7899 6.07317 19.6303 4.8531C17.6745 2.79533 14.3155 0 10.5 0C6.68448 0 3.32549 2.79533 1.36971 4.8531C0.210098 6.07317 0.210098 7.92683 1.36971 9.1469C3.32549 11.2047 6.68448 14 10.5 14C14.3155 14 17.6745 11.2047 19.6303 9.1469ZM10.5 10C12.1569 10 13.5 8.65685 13.5 7C13.5 5.34315 12.1569 4 10.5 4C8.84315 4 7.5 5.34315 7.5 7C7.5 8.65685 8.84315 10 10.5 10Z" fill="#5458EA"/>
</svg>
